<?xml version="1.0" encoding="UTF-8" standalone="no"?>
<!-- Created with Inkscape (http://www.inkscape.org/) -->

<svg
   width="1500mm"
   height="123.3929mm"
   viewBox="0 0 1499.9999 123.3929"
   version="1.1"
   id="svg138"
   inkscape:version="1.1 (c68e22c387, 2021-05-23)"
   sodipodi:docname="UC3M_logo.svg"
   xmlns:inkscape="http://www.inkscape.org/namespaces/inkscape"
   xmlns:sodipodi="http://sodipodi.sourceforge.net/DTD/sodipodi-0.dtd"
   xmlns="http://www.w3.org/2000/svg"
   xmlns:svg="http://www.w3.org/2000/svg">
  <sodipodi:namedview
     id="namedview140"
     pagecolor="#ffffff"
     bordercolor="#666666"
     borderopacity="1.0"
     inkscape:pageshadow="2"
     inkscape:pageopacity="0.0"
     inkscape:pagecheckerboard="0"
     inkscape:document-units="mm"
     showgrid="false"
     fit-margin-top="0"
     fit-margin-left="0"
     fit-margin-right="0"
     fit-margin-bottom="0"
     inkscape:zoom="0.77771465"
     inkscape:cx="523.32819"
     inkscape:cy="416.60524"
     inkscape:window-width="2736"
     inkscape:window-height="1730"
     inkscape:window-x="-11"
     inkscape:window-y="1069"
     inkscape:window-maximized="1"
     inkscape:current-layer="layer1" />
  <defs
     id="defs135">
    <clipPath
       clipPathUnits="userSpaceOnUse"
       id="clipPath35">
      <path
         d="M 0,0 H 595.276 V 841.89 H 0 Z"
         id="path33" />
    </clipPath>
  </defs>
  <g
     inkscape:label="Capa 1"
     inkscape:groupmode="layer"
     id="layer1"
     transform="translate(33.185523,-38.18405)">
    <g
       id="g29"
       transform="matrix(2.9398161,0,0,-2.9398161,-158.18621,1393.7994)">
      <g
         id="g31"
         clip-path="url(#clipPath35)">
        <g
           id="g37"
           transform="translate(552.7559,429.6015)">
          <path
             d="m 0,0 v 21.013 h -2.168 v -8.165 c -1.394,1.456 -3.358,2.352 -5.533,2.352 -4.23,0 -7.658,-3.429 -7.658,-7.658 0,-4.229 3.428,-7.658 7.658,-7.658 2.162,0 4.141,0.896 5.533,2.337 V 0 Z m -2.211,7.542 c 0,-3.032 -2.458,-5.49 -5.49,-5.49 -3.032,0 -5.49,2.458 -5.49,5.49 0,3.032 2.458,5.49 5.49,5.49 3.032,0 5.49,-2.458 5.49,-5.49 m -15.222,11.946 c 0,0.794 -0.644,1.437 -1.438,1.437 -0.794,0 -1.437,-0.643 -1.437,-1.437 0,-0.794 0.643,-1.438 1.437,-1.438 0.794,0 1.438,0.644 1.438,1.438 m -6.353,-6.529 c 0.509,0 1.016,-0.096 1.463,-0.269 v 2.279 c -0.414,0.092 -0.84,0.139 -1.28,0.139 -1.607,0 -3.07,-0.664 -4.141,-1.699 v 1.721 h -2.159 V -0.116 h 2.159 l 0.013,9.095 c 0,2.198 1.747,3.98 3.945,3.98 M -35.438,0 h 2.168 v 21.013 h -2.168 v -8.165 c -1.393,1.456 -3.358,2.352 -5.533,2.352 -4.23,0 -7.658,-3.429 -7.658,-7.658 0,-4.229 3.428,-7.658 7.658,-7.658 2.162,0 4.141,0.896 5.533,2.337 z m -0.043,7.542 c 0,-3.032 -2.458,-5.49 -5.49,-5.49 -3.032,0 -5.49,2.458 -5.49,5.49 0,3.032 2.458,5.49 5.49,5.49 3.032,0 5.49,-2.458 5.49,-5.49 M -53.182,0 h 2.167 v 15.2 h -2.167 v -2.352 c -1.394,1.456 -3.359,2.352 -5.534,2.352 -4.229,0 -7.658,-3.429 -7.658,-7.658 0,-4.229 3.429,-7.658 7.658,-7.658 2.162,0 4.141,0.896 5.534,2.337 z m -0.044,7.542 c 0,-3.032 -2.458,-5.49 -5.49,-5.49 -3.032,0 -5.49,2.458 -5.49,5.49 0,3.032 2.458,5.49 5.49,5.49 3.032,0 5.49,-2.458 5.49,-5.49 m -16.41,-7.398 h 2.279 L -72.865,21.362 -81.03,4.68 -89.195,21.362 -94.703,0.144 h 2.278 l 3.879,15.02 7.515,-15.411 7.517,15.411 z M -101.9,6.471 c 0.049,0.35 0.074,0.707 0.074,1.071 0,4.229 -3.428,7.658 -7.658,7.658 -4.229,0 -7.657,-3.429 -7.657,-7.658 0,-4.229 3.428,-7.658 7.657,-7.658 2.092,0 4.01,0.839 5.397,2.197 l -1.563,1.513 c -0.988,-0.955 -2.351,-1.542 -3.834,-1.542 -2.667,0 -4.89,1.902 -5.386,4.423 z m -2.205,2.18 -10.743,-0.02 c 0.505,2.51 2.705,4.401 5.364,4.401 2.653,0 4.866,-1.881 5.379,-4.381 M -121.851,0 h 2.168 v 21.013 h -2.168 v -8.165 c -1.394,1.456 -3.358,2.352 -5.534,2.352 -4.229,0 -7.657,-3.429 -7.657,-7.658 0,-4.229 3.428,-7.658 7.657,-7.658 2.163,0 4.142,0.896 5.534,2.337 z m -0.043,7.542 c 0,-3.032 -2.458,-5.49 -5.491,-5.49 -3.031,0 -5.49,2.458 -5.49,5.49 0,3.032 2.459,5.49 5.49,5.49 3.033,0 5.491,-2.458 5.491,-5.49 M -148.388,0.06 h 4.664 v 21.316 h -4.664 z m -8.332,0 h 4.664 v 21.316 h -4.664 z m -8.331,0 h 4.663 v 21.316 h -4.663 z m -13.248,11.117 c 0,0.678 0.551,1.245 1.23,1.245 0.959,0 1.801,-0.396 2.426,-1.026 l 2.037,2.074 c -1.149,1.141 -2.731,1.845 -4.478,1.845 -0.626,0 -1.217,-0.091 -1.789,-0.26 -2.078,-0.641 -3.627,-2.542 -3.627,-4.831 0,-0.153 0.014,-0.305 0.027,-0.455 0.185,-1.281 1.132,-2.312 2.322,-2.73 l 3.553,-1.356 c 0.554,-0.229 0.757,-0.624 0.757,-1.141 0,-1.096 -1.253,-1.418 -2.141,-1.418 -1.357,0 -2.537,0.627 -3.298,1.631 l -2.013,-1.996 c 1.276,-1.667 3.284,-2.745 5.545,-2.745 1.361,0 2.618,0.392 3.692,1.066 1.248,0.806 2.074,2.21 2.074,3.806 0,1.887 -1.117,3.48 -2.756,4.161 l -2.662,1.002 c -0.523,0.173 -0.899,0.566 -0.899,1.128 m -6.038,-3.507 c 0,4.228 -3.428,7.656 -7.656,7.656 -4.228,0 -7.656,-3.428 -7.656,-7.656 0,-4.228 3.428,-7.656 7.656,-7.656 4.228,0 7.656,3.428 7.656,7.656 m -3.573,0 c 0,-2.255 -1.828,-4.083 -4.083,-4.083 -2.255,0 -4.083,1.828 -4.083,4.083 0,2.255 1.828,4.083 4.083,4.083 2.255,0 4.083,-1.828 4.083,-4.083 m -17.659,-7.656 h 3.827 V 21.33 h -3.827 z m -3.568,11.465 c 0.451,0 0.871,-0.119 1.236,-0.326 v 4.148 c -0.184,0.018 -0.39,0.028 -0.595,0.028 -1.162,0 -2.234,-0.347 -3.136,-0.941 l -0.029,0.945 h -3.835 l -0.016,-15.319 h 3.85 v 8.955 c 0,1.386 1.139,2.51 2.525,2.51 M -222.124,0.014 h 3.587 v 15.298 h -3.587 v -1.173 c -1.18,0.743 -2.565,1.173 -4.062,1.173 -4.225,0 -7.649,-3.424 -7.649,-7.649 0,-4.225 3.424,-7.649 7.649,-7.649 1.477,0 2.892,0.419 4.062,1.144 z m 0.019,7.649 c 0,-2.254 -1.827,-4.081 -4.081,-4.081 -2.254,0 -4.081,1.827 -4.081,4.081 0,2.254 1.827,4.082 4.081,4.082 2.254,0 4.081,-1.828 4.081,-4.082 m -25.672,3.036 c 0,3.585 2.906,6.491 6.491,6.491 1.896,0 3.62,-0.813 4.806,-2.11 l 0.016,5.125 c -1.44,0.726 -3.086,1.135 -4.808,1.135 -5.878,0 -10.643,-4.765 -10.643,-10.643 0,-5.878 4.765,-10.643 10.643,-10.643 1.726,0 3.366,0.411 4.808,1.14 l -0.006,5.134 c -1.185,-1.272 -2.94,-2.12 -4.816,-2.12 -3.585,0 -6.491,2.906 -6.491,6.491 M -264.656,0.178 h 2.168 V 21.19 h -2.168 v -8.165 c -1.394,1.456 -3.359,2.352 -5.534,2.352 -4.229,0 -7.658,-3.428 -7.658,-7.657 0,-4.23 3.429,-7.658 7.658,-7.658 2.162,0 4.142,0.896 5.534,2.337 z M -264.7,7.72 c 0,-3.033 -2.457,-5.491 -5.49,-5.491 -3.032,0 -5.49,2.458 -5.49,5.491 0,3.032 2.458,5.49 5.49,5.49 3.033,0 5.49,-2.458 5.49,-5.49 m -17.437,-7.542 h 2.168 v 15.199 h -2.168 v -2.352 c -1.393,1.456 -3.358,2.352 -5.533,2.352 -4.23,0 -7.658,-3.428 -7.658,-7.657 0,-4.23 3.428,-7.658 7.658,-7.658 2.162,0 4.141,0.896 5.533,2.337 z m -0.043,7.542 c 0,-3.033 -2.458,-5.491 -5.49,-5.491 -3.032,0 -5.49,2.458 -5.49,5.491 0,3.032 2.458,5.49 5.49,5.49 3.032,0 5.49,-2.458 5.49,-5.49 m -17.437,-7.542 h 2.168 V 21.19 h -2.168 v -8.165 c -1.394,1.456 -3.358,2.352 -5.533,2.352 -4.23,0 -7.658,-3.428 -7.658,-7.657 0,-4.23 3.428,-7.658 7.658,-7.658 2.162,0 4.141,0.896 5.533,2.337 z m -0.043,7.542 c 0,-3.033 -2.458,-5.491 -5.49,-5.491 -3.033,0 -5.491,2.458 -5.491,5.491 0,3.032 2.458,5.49 5.491,5.49 3.032,0 5.49,-2.458 5.49,-5.49 m -15.008,11.945 c 0,0.794 -0.643,1.438 -1.437,1.438 -0.794,0 -1.437,-0.644 -1.437,-1.438 0,-0.794 0.643,-1.437 1.437,-1.437 0.794,0 1.437,0.643 1.437,1.437 m -11.713,-8.161 c -0.095,1.039 0.796,1.771 1.78,1.771 1.251,-0.021 2.103,-0.708 2.535,-1.613 l 1.765,1.004 c -0.91,1.778 -2.387,2.748 -4.143,2.748 -2.299,0 -4.165,-1.639 -4.236,-3.919 0,-1.972 1.19,-2.789 2.794,-3.652 l 3.106,-1.664 c 0.749,-0.5 1.059,-0.928 1.059,-1.82 -0.054,-1.083 -1.088,-2.103 -2.417,-2.103 -1.534,0 -2.541,0.892 -3.219,2.141 l -2,-0.977 c 0.781,-2.195 2.878,-3.358 4.974,-3.358 2.628,0 4.89,1.944 4.981,4.601 0,2.281 -1.639,3.282 -3.317,4.148 -1.732,0.963 -3.626,1.701 -3.662,2.693 m -5.644,1.633 c 0.509,0 1.016,-0.096 1.464,-0.27 v 2.28 c -0.415,0.091 -0.841,0.139 -1.281,0.139 -1.607,0 -3.07,-0.664 -4.141,-1.7 v 1.722 h -2.159 V 0.062 h 2.159 l 0.013,9.095 c 0,2.198 1.747,3.98 3.945,3.98 m -8.574,-6.488 c 0.049,0.349 0.074,0.707 0.074,1.071 0,4.229 -3.429,7.657 -7.658,7.657 -4.229,0 -7.658,-3.428 -7.658,-7.657 0,-4.23 3.429,-7.658 7.658,-7.658 2.091,0 4.01,0.838 5.396,2.197 l -1.563,1.513 c -0.988,-0.955 -2.351,-1.543 -3.833,-1.543 -2.667,0 -4.89,1.902 -5.386,4.424 z m -2.206,2.179 -10.742,-0.02 c 0.505,2.511 2.705,4.402 5.364,4.402 2.653,0 4.866,-1.881 5.378,-4.382 m -20.984,-8.766 7.399,15.462 h -2.43 l -4.99,-10.535 -5.107,10.535 h -2.43 z m -9.155,19.603 c 0,0.794 -0.644,1.438 -1.438,1.438 -0.794,0 -1.438,-0.644 -1.438,-1.438 0,-0.794 0.644,-1.437 1.438,-1.437 0.794,0 1.438,0.643 1.438,1.437 m -4.884,-19.603 0.018,9.265 c 0,3.285 -2.702,5.959 -5.987,5.959 -1.607,0 -3.07,-0.664 -4.14,-1.7 v 1.722 h -2.159 V 0.062 h 2.159 l 0.013,9.095 c 0,2.198 1.746,3.98 3.944,3.98 2.198,0 3.98,-1.782 3.98,-3.98 l 0.013,-9.095 z m -15.18,8.169 0.004,12.883 h -2.159 l 0.036,-12.883 c 0,-3.316 -2.753,-6.004 -6.068,-6.004 -3.315,0 -6.003,2.688 -6.003,6.004 l 0.006,12.883 h -2.159 l -0.013,-12.883 c 0,-4.512 3.658,-8.169 8.169,-8.169 4.511,0 8.187,3.657 8.187,8.169 m -33.026,-18.683 h 1.965 v 41.973 h -1.965 z m -14.742,10.489 0.011,9.077 c 0,3.419 -2.784,6.168 -6.202,6.168 -1.914,0 -3.627,-0.845 -4.762,-2.209 -1.132,1.351 -2.832,2.209 -4.732,2.209 -1.244,0 -2.397,-0.368 -3.366,-1.002 l 0.014,0.999 h -3.799 V 0.037 h 3.799 l 0.017,8.585 c 0,1.575 1.271,2.851 2.846,2.851 1.575,0 2.845,-1.286 2.845,-2.86 V 0.037 h 3.82 l 0.001,8.585 c 0,1.575 1.271,2.851 2.846,2.851 1.575,0 2.851,-1.276 2.851,-2.851 l -0.006,-8.585 z m -25.746,7.597 c 0,3.248 -2.029,6.021 -4.893,7.113 l 2.429,6.281 -11.768,-0.029 v -3.815 l 6.223,-0.004 -2.2,-5.724 2.661,-0.002 -0.055,-0.006 c 2.107,0 3.808,-1.708 3.808,-3.814 0,-2.106 -1.707,-3.814 -3.813,-3.814 -2.107,0 -3.814,1.708 -3.814,3.814 l -3.793,-0.007 c 0,-4.203 3.404,-7.602 7.607,-7.602 4.202,0 7.608,3.407 7.608,7.609 m -20.854,-7.607 c 1.179,0 2.307,0.268 3.303,0.746 v 4.393 c -0.855,-0.833 -2.015,-1.346 -3.303,-1.346 -2.106,0 -3.813,1.71 -3.813,3.816 0,2.106 1.713,3.815 3.819,3.815 1.28,0 2.444,-0.506 3.297,-1.331 v 4.377 c -0.997,0.479 -2.123,0.748 -3.303,0.748 -4.202,0 -7.608,-3.407 -7.608,-7.609 0,-4.202 3.406,-7.609 7.608,-7.609 m -9.529,6.661 v 8.608 h -3.817 v -8.61 c 0,-1.575 -1.279,-2.852 -2.854,-2.852 -1.575,0 -2.851,1.277 -2.851,2.852 v 8.61 h -3.809 V 6.688 c 0,-3.68 2.983,-6.663 6.662,-6.663 3.68,0 6.669,2.983 6.669,6.663 m 123.603,8.648 h -2.159 V 0.062 h 2.159 z m 58.276,0 h -2.159 V 0.062 h 2.159 z m 297.234,-0.177 h -2.159 V -0.115 h 2.159 z"
             style="fill:#2e2c6d;fill-opacity:1;fill-rule:nonzero;stroke:none"
             id="path39" />
        </g>
      </g>
    </g>
  </g>
</svg>
