<?xml version="1.0" encoding="UTF-8" standalone="no"?>
<!-- Created with Inkscape (http://www.inkscape.org/) -->

<svg
   xmlns:dc="http://purl.org/dc/elements/1.1/"
   xmlns:cc="http://creativecommons.org/ns#"
   xmlns:rdf="http://www.w3.org/1999/02/22-rdf-syntax-ns#"
   xmlns:svg="http://www.w3.org/2000/svg"
   xmlns="http://www.w3.org/2000/svg"
   xmlns:sodipodi="http://sodipodi.sourceforge.net/DTD/sodipodi-0.dtd"
   xmlns:inkscape="http://www.inkscape.org/namespaces/inkscape"
   width="4900.7173"
   height="2364.9932"
   id="svg2"
   version="1.1"
   inkscape:version="0.92.3 (2405546, 2018-03-11)"
   sodipodi:docname="logo_horizontal_gray.svg"
   inkscape:export-filename="/Users/admin/Documents/gul/Logos/logo_horizontal_blue.png"
   inkscape:export-xdpi="90"
   inkscape:export-ydpi="90">
  <defs
     id="defs4" />
  <sodipodi:namedview
     id="base"
     pagecolor="#ffffff"
     bordercolor="#666666"
     borderopacity="1.0"
     inkscape:pageopacity="0.0"
     inkscape:pageshadow="2"
     inkscape:zoom="0.09489373"
     inkscape:cx="901.22105"
     inkscape:cy="637.65568"
     inkscape:document-units="px"
     inkscape:current-layer="layer11"
     showgrid="false"
     inkscape:window-width="1920"
     inkscape:window-height="1017"
     inkscape:window-x="-8"
     inkscape:window-y="-8"
     inkscape:window-maximized="1"
     fit-margin-top="0"
     fit-margin-left="0"
     fit-margin-right="0"
     fit-margin-bottom="0"
     inkscape:object-paths="false"
     inkscape:snap-bbox="false"
     inkscape:snap-global="true"
     inkscape:snap-others="false"
     inkscape:snap-nodes="false"
     units="px"
     showguides="true"
     inkscape:guide-bbox="true" />
  <metadata
     id="metadata7">
    <rdf:RDF>
      <cc:Work
         rdf:about="">
        <dc:format>image/svg+xml</dc:format>
        <dc:type
           rdf:resource="http://purl.org/dc/dcmitype/StillImage" />
        <dc:title></dc:title>
      </cc:Work>
    </rdf:RDF>
  </metadata>
  <g
     inkscape:groupmode="layer"
     id="layer10"
     inkscape:label="Capa 1 copy copy 1"
     transform="translate(-3.13333,-13.146688)">
    <g
       style="display:inline"
       transform="translate(335.93796,450.66727)"
       id="g5117"
       inkscape:label="Capa 1 copy copy">
      <path
         sodipodi:nodetypes="cccccccccccccccccccccccccccccccccccccccccccccccc"
         inkscape:connector-curvature="0"
         d="m 1219.8237,429.79074 c 39.816,46.24291 84.3706,182.2897 -28.7492,118.82387 -95.7515,-97.46439 -213.56581,-43.37117 -299.35821,29.09993 12.104,-92.52005 177.21021,-157.22812 270.19861,-187.66421 27.0944,-5.53424 60.487,6.80826 57.9088,39.74041 z m 809.8752,1495.44166 -2362.50353,-0.2632 768.66186,2.5032 c 37.07833,-76.4579 69.86976,-161.0494 128.6077,-194.9481 56.12921,-72.7079 224.84343,-26.3471 136.52123,-152.5029 -31.5415,-89.3572 -26.0555,-204.6238 -43.34803,-284.4924 -48.78507,79.6318 13.49093,216.4848 -39.40374,270.5075 -79.3123,-64.1189 -109.2996,-171.4073 -147.10701,-263.2814 -39.54368,-108.1092 -76.3137,-219.9232 -78.30148,-336.1206 34.10354,94.5571 42.94001,224.0815 91.01186,325.0924 20.21755,96.9041 113.69299,177.5915 123.57373,190.8864 11.16945,-96.6399 -3.04769,-229.3163 82.00967,-291.9762 3.2011,82.6958 -0.3914,207.289 25.0332,304.3307 13.3049,146.6134 116.3296,284.8996 259.15095,326.9603 -110.5521,-134.5578 -94.6418,-330.6162 -44.7394,-486.841 -6.6102,-69.8377 111.99609,-151.257 40.3655,-39.9966 -18.0446,88.79 -108.4089,292.1835 58.09499,247.9758 117.8911,-12.816 244.2734,-25.8466 346.0348,-90.7007 41.0631,-61.8599 70.7937,-174.1268 74.6426,-223.3477 -55.412,111.3038 -168.869,80.5312 -217.7949,-0.791 -70.7858,-9.9424 -40.0401,-105.1013 -112.9575,-111.2244 -87.5953,-61.8849 24.8529,-199.2449 118.4149,-210.5198 76.3945,53.113 140.0881,-106.8402 234.7737,-33.339 22.3474,47.9848 23.2092,164.9221 34.1155,45.1538 -20.3421,-117.4624 183.768,-70.8548 126.0413,-197.6504 C 1695.1185,591.0532 1540.2447,542.71473 1453.4952,494.42461 1320.2578,469.24707 1323.8623,305.40055 1209.6428,254.76616 1067.5598,166.4275 889.69101,198.05407 741.21666,130.46693 641.54578,47.909195 594.33445,-80.343239 490.52984,-159.4452 423.19562,-179.84562 254.33724,-431.84161 299.79713,-367.67928 349.5532,-245.30436 371.41416,-98.770459 294.8008,18.398005 226.483,104.70916 426.50957,136.90019 471.24644,199.10836 507.38659,212.41348 642.50989,329.5059 532.74089,270.60346 406.99048,190.82493 277.80357,116.4433 151.02493,38.481255 102.87699,-50.199505 45.716117,-133.67353 -15.439223,-213.8641 40.224467,-81.491769 115.09236,70.512435 45.943227,212.7267 21.771017,316.89594 118.25328,407.38007 157.4023,498.64076 201.43488,541.94942 221.66702,654.9081 153.39403,552.57537 101.88588,495.71577 75.988707,328.32727 -1.5411527,451.9394 -108.05875,548.3794 -229.22877,681.77063 -332.62433,824.58519 c 0.16379,-81.16506 0.58621,-1262.10586 0.58621,-1262.10586 0,0 2334.10002,2.85574 2358.47332,2.12615 -1.3622,31.28187 6.6094,1652.02612 3.2637,2360.62692 z"
         style="fill:#666666;fill-opacity:1"
         id="path5121" />
      <path
         style="fill:#1c3144;fill-opacity:0;fill-rule:nonzero"
         d="m 412.86762,1908.9659 c 5.41567,-5.6852 13.67167,-13.6602 18.34667,-17.7224 23.11696,-20.0867 41.28898,-39.5932 46.48677,-49.9003 17.48186,-34.6665 63.55327,-90.3472 96.82454,-117.0196 31.87363,-25.552 49.7933,-33.5314 90.94165,-40.4952 30.74854,-5.2038 60.39094,-12.5344 62.14214,-15.368 0.2285,-0.3696 -1.7553,-5.0919 -4.4082,-10.494 -16.0991,-32.7815 -44.3449,-140.6923 -49.4622,-188.966 -0.8285,-7.8153 -2.3928,-22.5347 -3.4762,-32.7097 -2.9426,-27.6354 -5.75111,-61.6882 -8.04127,-97.5 -1.12551,-17.6 -2.37868,-35.375 -2.78481,-39.5 l -0.73843,-7.5 -3.34039,6.9609 c -8.9838,18.721 -15.56447,49.4 -19.09898,89.0391 -4.07315,45.68 -3.84825,113.4146 0.44991,135.5 11.33915,58.2643 -21.81444,63.7281 -60.67887,10 -28.91784,-39.9774 -81.91309,-150.0641 -103.46471,-214.9265 -1.38403,-4.1654 -6.49448,-18.5985 -11.35655,-32.0735 -47.01934,-130.312 -66.01602,-210.6331 -70.47977,-297.99996 -0.32316,-6.325 -0.80528,-13.2113 -1.07138,-15.303 l -0.48382,-3.8029 5.24312,0.3029 5.24313,0.303 1.73307,12.5 c 16.65055,120.09456 35.67373,194.86386 79.50784,312.49996 9.87979,26.5141 35.42391,79.794 52.52518,109.557 5.23234,9.1064 10.97233,19.2314 12.75552,22.5 9.5099,17.4318 40.66322,61.2021 53.34037,74.943 l 4.61293,5 0.0397,-3.7426 c 1.98178,-186.8033 43.39053,-326.5008 91.19061,-307.6427 l 2.6508,1.0458 -2.8713,7.8675 c -19.4107,53.1867 -6.654,197.818 32.9522,373.5995 l 4.9857,22.1274 10.4627,20.8726 c 51.2839,102.3086 133.7116,178.7284 217.169,201.3404 4.4,1.1922 8.8801,2.4218 9.9558,2.7325 1.1468,0.3313 -1.0609,-2.6952 -5.3381,-7.3177 -42.4412,-45.8679 -68.3798,-117.6288 -74.0563,-204.8827 -7.7741,-119.4941 3.0781,-188.1648 50.8864,-322 10.5833,-29.6271 23.8133,-49.6359 34.9837,-52.9086 11.1126,-3.2559 19.1554,0.2243 17.6709,7.6464 -0.6886,3.4431 -1.0202,3.9617 -9.1192,14.2622 -26.5875,33.8146 -51.4685,142.0623 -60.6168,263.7212 -1.4715,19.5691 -2.5582,17.3667 9.7446,19.7491 103.26721,19.9974 389.13431,-37.643 435.60011,-87.8316 20.4713,-22.1114 44.3591,-87.1869 74.7525,-203.6415 8.1622,-31.2737 8.1724,-29.4372 -0.11,-19.7063 -17.0847,20.0726 -36.7078,38.9283 -68.3536,65.6805 -19.744,16.6908 -27.9156,19.2957 -47.159,15.0329 -16.1377,-3.5747 -20.5751,-7.5164 -36.841,-32.7254 -0.8085,-1.2529 -2.1261,-1.4153 -6.8788,-0.8475 -21.5342,2.5727 -48.4908,-19.381 -48.6268,-39.602 0,-0.4561 -0.4742,-2.5169 -1.047,-4.5794 l -1.0414,-3.75 -7.8477,0 c -34.2701,0 -51.7171,-24.1951 -60.6477,-84.1048 l -0.5373,-3.6047 -9.0242,-0.6406 c -28.892,-2.0508 -45.8491,-15.9515 -45.8491,-37.5852 l 0,-4.5723 -9.75,0 c -54.1749,0.021 -12.1491,-113.20246 59.6089,-160.59486 50.3357,-33.2441 102.8423,-42.09 113.7238,-19.1594 6.2935,13.2622 5.1172,13.4323 21.6343,-3.13 7.8557,-7.8771 21.708,-20.6845 30.783,-28.4609 l 16.5,-14.1388 12.3297,-4.0459 c 59.1827,-19.4204 105.0637,-13.7758 117.727,14.4836 2.1544,4.8079 13.419,66.3617 16.5309,90.3315 1.5833,12.1952 2.2761,12.1788 3.7893,-0.09 5.7118,-46.3076 15.4286,-107.3399 18.0179,-113.1719 5.5459,-12.4908 28.0631,-23.8125 88.6867,-44.5915 21.7107,-7.4415 26.11,-9.3483 26.7717,-11.6036 1.7213,-5.8672 2.7979,-16.3915 3.7403,-36.5657 l 1.0623,-22.7412 -2.7188,-5.557 c -4.6441,-9.4922 -2.4878,-25.2728 5.469,-40.0243 l 3.905,-7.2395 -0.8779,-28.1009 c -1.6398,-52.4901 -2.5409,-57.078 -12.9331,-65.8478 -32.0456,-27.0428 -171.8511,-105.44673 -231.4652,-129.80729 -36.4672,-14.90184 -68.8872,-58.25814 -90.6087,-121.17399 -4.7301,-13.70047 -30.947,-44.09319 -54.0348,-62.64134 -69.5566,-55.87614 -169.0548,-89.13985 -315.89131,-105.60318 -87.3483,-9.7935 -170.0384,-30.0607 -194.9333,-47.77783 -33.0748,-23.53843 -84.9426,-86.51329 -136.5086,-165.74057 -25.07317,-38.52305 -43.39015,-58.11313 -129.5581,-138.56285 -23.92754,-22.33967 -43.86457,-39.03539 -58.33591,-48.85179 -17.18889,-11.65981 -56.50545,-52.82643 -78.39638,-82.08536 -6.53752,-8.73791 -7.63323,-10.9534 -13.65879,-27.61765 -10.64416,-29.4374 -21.28395,-53.10736 -24.32823,-54.12212 -5.93876,-1.97958 0.34817,31.45706 11.70264,62.23977 12.66365,34.33196 16.15294,44.25065 19.43897,55.25732 32.78528,109.81536 8.81773,236.57643 -60.67698,320.91215 l -6.75468,8.19718 41.75468,27.90527 c 256.35802,171.32781 278.53924,187.50753 274.18458,199.99932 -3.09606,8.88138 -9.26914,7.72624 -28.9299,-5.41353 -9.075,-6.06504 -26.85,-17.45087 -39.5,-25.30185 -12.65,-7.85097 -30.425,-18.90385 -39.5,-24.56195 -9.075,-5.6581 -28.2,-17.37855 -42.5,-26.04544 -72.90654,-44.18696 -99.33807,-60.14355 -124,-74.85822 -14.85,-8.86034 -33.75,-20.20325 -42,-25.20647 C 243.79332,99.41278 165.31036,52.67201 154.9606,46.69259 148.29308,42.84052 148.10918,42.6185 140.54669,29.29074 124.22226,0.52137 120.35084,-6.46039 116.7491,-13.62608 106.2946,-34.42536 54.83801,-111.41722 13.42469,-168.22509 c -6.99072,-9.58937 -16.21256,-22.28374 -20.49298,-28.2097 -14.29894,-19.79595 -14.55091,-19.58785 -3.9055,3.22553 37.42978,80.21295 77.48653,201.48582 81.25445,246 4.8579,57.3912 -2.01953,98.49385 -27.27366,163 -6.60791,16.87846 -9.13434,24.59692 -9.49237,29 -2.2613,27.81009 31.19382,102.44323 93.68654,209 6.45121,11 12.75493,22.025 14.00828,24.5 1.25335,2.475 10.48635,18.675 20.51779,36 37.90611,65.4665 44.45508,80.032 38.61159,85.8755 -10.84474,10.8447 -35.60249,-17.7843 -79.01947,-91.3755 -20.71513,-35.11187 -44.8884,-77.98721 -53.736,-95.3098 -4.1267,-8.07961 -7.81044,-14.9955 -8.18608,-15.36864 -0.37565,-0.37315 -11.25799,8.98096 -24.18299,20.78691 -12.925,11.80594 -36.775,33.4805 -53,48.1657 -16.225,14.68519 -33.55,30.55701 -38.5,35.27071 -4.95,4.71371 -20.25,18.66605 -34,31.00522 -13.75,12.33917 -29.05,26.28917 -34,31 -4.95,4.7108 -20.25,18.6608 -34,31 -13.75,12.3392 -29.05,26.2892 -34,31 -4.95,4.7108 -20.25,18.6608 -34,31 -13.75,12.3392 -29.05,26.2902 -34,31.0023 -13.78039,13.118 -48.39541,44.0275 -48.96163,43.7203 -0.27638,-0.15 -5.23558,4.4443 -11.02044,10.2094 l -10.51793,10.4822 0,-534.23217 c 0,-293.82767 0.3584,-534.23213 0.79645,-534.23213 0.43805,0 1.35463,-3.25507 2.03686,-7.2335 8.678,-50.60621 48.706,-92.39108 101.16669,-105.60699 l 10.5,-2.64517 1057,-0.28006 c 962.10791,-0.25492 1057.98571,-0.13723 1067.97931,1.31099 54.1799,7.85139 103.3869,54.70008 111.0371,105.71551 0.3909,2.60657 1.1096,4.73922 1.5971,4.73922 0.5148,0 0.8865,445.98055 0.8865,1063.5 0,617.51936 -0.3717,1063.49996 -0.8865,1063.49996 -0.4875,0 -1.2062,2.1327 -1.5971,4.7392 -7.258,48.3998 -51.5481,92.8769 -104.5412,104.9827 -7.0068,1.6006 -54.6142,1.7259 -759.8219,1.9988 l -752.34664,0.2911 9.84666,-10.3366 z M 885.71649,577.71534 c -12.8329,-6.6913 -13.1726,-21.16692 -0.7772,-33.11675 22.9488,-22.12373 99.538,-76.92739 143.77501,-102.87865 111.548,-65.43864 184.6537,-70.14987 185.1096,-11.9292 0.1483,18.94217 3.1806,26.14297 17.8968,42.5 36.1239,40.15159 43.8629,83.27955 16.4071,91.43306 -21.1936,6.29384 -44.595,-2.2417 -97.8,-35.67187 -48.0007,-30.16013 -76.5601,-40.23783 -109.0109,-38.46652 -24.1137,1.31623 -38.0581,8.62855 -88.10261,46.20026 -58.3337,43.79497 -60.8831,45.37867 -67.4978,41.92967 z"
         id="path5123"
         inkscape:connector-curvature="0" />
    </g>
  </g>
  <g
     inkscape:groupmode="layer"
     id="layer11"
     inkscape:label="Capa 1 copy copy 2"
     transform="translate(-3.13333,-13.146688)">
    <g
       id="g845"
       transform="translate(-126,80.856456)"
       style="fill:#1a1a1a">
      <g
         aria-label="GUL"
         transform="translate(266.80478)"
         style="font-style:normal;font-weight:normal;line-height:0.01%;font-family:sans-serif;letter-spacing:0px;word-spacing:0px;fill:#1a1a1a;fill-opacity:1;stroke:none;stroke-width:1px;stroke-linecap:butt;stroke-linejoin:miter;stroke-opacity:1"
         id="flowRoot5290">
        <path
           d="m 2874.4258,966.29687 q 48.3437,0 83.9375,-8.5 36.125,-9.03125 68.5312,-24.4375 V 793.64062 h -96.1562 q -13.8125,0 -21.7813,-7.4375 -7.9687,-7.96875 -7.9687,-19.125 v -80.75 h 255.5312 v 310.78125 q -29.2187,21.25003 -61.0937,37.18753 -31.3438,15.4062 -67.4688,25.5 -35.5937,10.0937 -76.5,14.875 -40.9062,5.3125 -88.1875,5.3125 -83.9375,0 -154.5937,-29.2188 -70.6563,-29.2187 -122.1875,-81.28123 -51.5313,-52.0625 -80.75,-124.3125 -28.6875,-72.25 -28.6875,-157.78125 0,-86.59375 28.1562,-158.84375 28.1563,-72.25 79.6875,-124.3125 52.0625,-52.0625 125.9063,-80.75 73.8437,-28.6875 165.75,-28.6875 94.0312,0 162.5625,28.15625 69.0625,27.625 116.875,72.25 l -41.4375,64.8125 q -12.2188,19.65625 -32.4063,19.65625 -12.75,0 -26.0312,-8.5 -17,-10.09375 -35.0625,-20.1875 -17.5313,-10.09375 -39.3125,-17.53125 -21.25,-7.4375 -48.3438,-12.21875 -26.5625,-4.78125 -61.625,-4.78125 -56.8437,0 -103.0625,19.125 -45.6875,19.125 -78.0937,54.71875 -32.4063,35.59375 -49.9375,85.53125 -17.5313,49.9375 -17.5313,111.5625 0,66.40625 18.5938,118.46875 18.5937,51.53125 52.0625,87.125 33.4687,35.59375 79.6875,54.71875 46.2187,18.59375 100.9375,18.59375 z"
           style="font-style:normal;font-variant:normal;font-weight:bold;font-stretch:normal;font-size:1062.5px;line-height:1.25;font-family:Lato;-inkscape-font-specification:'Lato Bold';fill:#1a1a1a;fill-opacity:1"
           id="path847" />
        <path
           d="m 3598.6855,956.20312 q 41.4375,0 73.8438,-13.8125 32.9375,-13.8125 55.25,-38.78125 22.8437,-24.96875 34.5312,-60.5625 12.2188,-35.59375 12.2188,-79.6875 v -460.0625 h 142.9062 v 460.0625 q 0,68.53125 -22.3125,126.96875 -21.7812,57.90625 -63.2187,100.40625 -41.4375,41.96873 -100.4063,65.87503 -58.9687,23.375 -132.8125,23.375 -73.8437,0 -132.8125,-23.375 -58.9687,-23.9063 -100.4062,-65.87503 -40.9063,-42.5 -63.2188,-100.40625 -21.7812,-58.4375 -21.7812,-126.96875 v -460.0625 h 142.9062 v 459.53125 q 0,44.09375 11.6875,79.6875 12.2188,35.59375 34.5313,61.09375 22.3125,24.96875 54.7187,38.78125 32.9375,13.8125 74.375,13.8125 z"
           style="font-style:normal;font-variant:normal;font-weight:bold;font-stretch:normal;font-size:1062.5px;line-height:1.25;font-family:Lato;-inkscape-font-specification:'Lato Bold';fill:#1a1a1a;fill-opacity:1"
           id="path849" />
        <path
           d="m 4206.4521,953.54687 h 307.5938 v 117.93753 h -450.5 V 303.29687 h 142.9062 z"
           style="font-style:normal;font-variant:normal;font-weight:bold;font-stretch:normal;font-size:1062.5px;line-height:1.25;font-family:Lato;-inkscape-font-specification:'Lato Bold';fill:#1a1a1a;fill-opacity:1"
           id="path851" />
      </g>
      <g
         aria-label="UC3M"
         transform="translate(96.870343,-238.45008)"
         style="font-style:normal;font-weight:normal;line-height:0.01%;font-family:sans-serif;letter-spacing:0px;word-spacing:0px;fill:#1a1a1a;fill-opacity:1;stroke:none;stroke-width:1px;stroke-linecap:butt;stroke-linejoin:miter;stroke-opacity:1"
         id="flowRoot5307">
        <path
           d="m 2899.1924,2109.1016 q 33.375,0 59.625,-11.25 26.25,-11.25 44.25,-31.5 18.375,-20.25 27.75,-48.375 9.75,-28.125 9.75,-61.875 v -326.625 h 72.375 v 326.625 q 0,46.5 -15,86.25 -14.625,39.75 -42.375,69 -27.375,28.875 -67.125,45.375 -39.75,16.5 -89.25,16.5 -49.5,0 -89.25,-16.5 -39.75,-16.5 -67.5,-45.375 -27.75,-29.25 -42.75,-69 -14.625,-39.75 -14.625,-86.25 v -326.625 h 72.375 v 326.25 q 0,33.75 9.375,61.875 9.75,28.125 27.75,48.375 18.375,20.25 44.625,31.875 26.625,11.25 60,11.25 z"
           style="font-style:normal;font-variant:normal;font-weight:normal;font-stretch:normal;font-size:750px;line-height:1.25;font-family:Lato;-inkscape-font-specification:Lato;text-align:center;letter-spacing:-25px;text-anchor:middle;fill:#1a1a1a;fill-opacity:1"
           id="path854" />
        <path
           d="m 3591.9189,2055.8516 q 6,0 10.875,4.875 l 28.5,31.125 q -33,38.25 -80.25,59.625 -46.875,21.375 -113.25,21.375 -58.125,0 -105.375,-19.875 -47.25,-20.25 -80.625,-56.25 -33.375,-36.375 -51.75,-87 -18.375,-50.625 -18.375,-111.375 0,-60.75 19.5,-111.375 19.875,-50.625 55.5,-87 35.625,-36.375 85.125,-56.25 49.875,-20.25 109.875,-20.25 59.25,0 102,18.375 43.125,18.375 76.5,49.875 l -23.625,33.375 q -2.625,3.75 -6,6.375 -3.375,2.25 -9.75,2.25 -4.875,0 -10.5,-3.375 -5.25,-3.75 -12.75,-9 -7.5,-5.25 -17.625,-11.25 -10.125,-6 -24,-11.25 -13.875,-5.25 -32.25,-8.625 -18.375,-3.75 -42.375,-3.75 -43.125,0 -79.125,15 -35.625,14.625 -61.5,42 -25.875,27.375 -40.5,66.75 -14.25,39.375 -14.25,88.125 0,50.25 14.25,89.625 14.625,39.375 39.375,66.75 25.125,27 59.25,41.25 34.125,14.25 73.5,14.25 24,0 43.125,-2.625 19.125,-3 35.25,-9 16.5,-6 30.375,-15 14.25,-9.375 28.5,-22.125 6.375,-5.625 12.375,-5.625 z"
           style="font-style:normal;font-variant:normal;font-weight:normal;font-stretch:normal;font-size:750px;line-height:1.25;font-family:Lato;-inkscape-font-specification:Lato;text-align:center;letter-spacing:-25px;text-anchor:middle;fill:#1a1a1a;fill-opacity:1"
           id="path856" />
        <path
           d="m 3869.5791,1623.4766 q 34.125,0 63,9.75 28.875,9.75 49.5,27.75 21,18 32.625,43.5 11.625,25.5 11.625,56.625 0,25.5 -6.75,45.75 -6.375,19.875 -18.75,35.25 -12,15 -29.25,25.5 -17.25,10.5 -38.625,16.875 52.5,13.875 78.75,46.5 26.625,32.625 26.625,81.75 0,37.125 -14.25,66.75 -13.875,29.625 -38.25,50.625 -24.375,20.625 -57,31.875 -32.25,10.875 -69.375,10.875 -42.75,0 -73.125,-10.5 -30.375,-10.875 -51.375,-29.625 -21,-18.75 -34.5,-44.25 -13.5,-25.875 -22.875,-55.875 l 28.5,-12 q 7.875,-3.375 15.75,-3.375 7.5,0 13.125,3.375 6,3 9,9.75 0.75,1.5 1.5,3.375 0.75,1.5 1.5,3.375 5.25,10.875 12.75,24.75 7.5,13.5 20.25,25.5 12.75,12 31.5,20.25 19.125,8.25 47.25,8.25 28.125,0 49.125,-9 21.375,-9.375 35.25,-24 14.25,-14.625 21.375,-32.625 7.125,-18 7.125,-35.625 0,-21.75 -6,-39.75 -5.625,-18 -21,-31.125 -15,-13.125 -42,-20.625 -26.625,-7.5 -68.625,-7.5 v -48.375 q 34.125,-0.375 58.125,-7.5 24.375,-7.125 39.75,-19.5 15.375,-12.375 22.125,-29.625 7.125,-17.25 7.125,-38.25 0,-23.25 -7.5,-40.5 -7.125,-17.25 -19.875,-28.5 -12.75,-11.25 -30.375,-16.875 -17.25,-5.625 -37.5,-5.625 -20.25,0 -37.5,6 -17.25,6 -30.75,16.875 -13.125,10.5 -22.125,25.5 -9,14.625 -13.5,31.875 -3,10.875 -9,15.75 -6,4.875 -15.375,4.875 -1.875,0 -4.125,0 -1.875,-0.375 -4.5,-0.75 l -34.875,-6 q 5.25,-36.75 20.25,-64.875 15,-28.5 37.875,-47.625 23.25,-19.125 52.875,-28.875 30,-10.125 64.5,-10.125 z"
           style="font-style:normal;font-variant:normal;font-weight:normal;font-stretch:normal;font-size:750px;line-height:1.25;font-family:Lato;-inkscape-font-specification:Lato;text-align:center;letter-spacing:-25px;text-anchor:middle;fill:#1a1a1a;fill-opacity:1"
           id="path858" />
        <path
           d="m 4376.7627,1972.6016 q 5.25,9 9,19.125 4.125,9.75 7.875,19.875 3.75,-10.5 7.875,-19.875 4.125,-9.75 9.375,-19.5 l 181.875,-330.375 q 4.875,-8.625 10.125,-10.5 5.25,-1.875 15,-1.875 h 53.625 v 537.375 h -63.75 v -394.875 q 0,-7.875 0.375,-16.875 0.375,-9 1.125,-18.375 l -184.125,336 q -9.375,16.875 -26.25,16.875 h -10.5 q -16.875,0 -26.25,-16.875 l -188.25,-337.125 q 1.125,9.75 1.5,19.125 0.75,9.375 0.75,17.25 v 394.875 h -63.75 v -537.375 h 53.625 q 9.75,0 15,1.875 5.25,1.875 10.125,10.5 l 185.625,330.75 z"
           style="font-style:normal;font-variant:normal;font-weight:normal;font-stretch:normal;font-size:750px;line-height:1.25;font-family:Lato;-inkscape-font-specification:Lato;text-align:center;letter-spacing:-25px;text-anchor:middle;fill:#1a1a1a;fill-opacity:1"
           id="path860" />
      </g>
    </g>
  </g>
</svg>
